<svg width="497" height="381" viewBox="0 0 497 381" fill="none" xmlns="http://www.w3.org/2000/svg">
<path d="M496.309 66.1498C499.537 86.8505 491.21 102.318 476.522 116.733C408.576 183.391 341.261 250.703 273.807 317.875C259.773 331.847 245.716 345.842 232.361 360.468C216.924 377.36 199.242 385.631 176.344 378.342C166.427 372.758 158.545 364.744 150.639 356.777C106.807 312.572 62.9292 268.437 19.0977 224.255C-6.49012 198.461 -6.34979 175.517 19.4252 149.653C27.6582 141.382 35.7977 132.995 44.2412 124.934C65.7125 104.397 90.2946 104.49 111.251 125.331C135.787 149.747 160.509 174.022 184.296 199.162C191.874 207.176 195.57 205.54 202.376 198.741C262.557 138.439 323.065 78.4627 383.479 18.3935C408.131 -6.09217 431.871 -6.1389 456.43 18.3C463.049 24.8887 469.458 31.6877 476.264 38.0895C484.778 46.1501 492.052 55.0519 496.309 66.1498Z" fill="#F7FAFC"/>
</svg>
